<svg xmlns="http://www.w3.org/2000/svg" viewBox="0 0 64 64" fill="none">
  <defs>
    <linearGradient id="grad1" x1="0%" y1="0%" x2="100%" y2="100%">
      <stop offset="0%" style="stop-color:#06b6d4;stop-opacity:1" />
      <stop offset="100%" style="stop-color:#3b82f6;stop-opacity:1" />
    </linearGradient>
  </defs>

  <!-- Background circle -->
  <circle cx="32" cy="32" r="30" fill="#0f172a"/>

  <!-- Bitcoin symbol with gradient -->
  <path d="M 32 12 L 32 52 M 24 12 L 24 52 M 40 12 L 40 52" stroke="url(#grad1)" stroke-width="2.5" stroke-linecap="round"/>

  <!-- Upper curve -->
  <path d="M 24 22 L 38 22 C 42 22 44 24 44 28 C 44 32 42 34 38 34 L 24 34"
        stroke="url(#grad1)" stroke-width="3" fill="none" stroke-linecap="round" stroke-linejoin="round"/>

  <!-- Lower curve -->
  <path d="M 24 34 L 40 34 C 44 34 46 36 46 40 C 46 44 44 46 40 46 L 24 46"
        stroke="url(#grad1)" stroke-width="3" fill="none" stroke-linecap="round" stroke-linejoin="round"/>

  <!-- Trend arrow -->
  <path d="M 48 18 L 54 18 L 54 12" stroke="#10b981" stroke-width="2.5" stroke-linecap="round" stroke-linejoin="round" fill="none"/>
  <path d="M 42 24 L 54 12" stroke="#10b981" stroke-width="2.5" stroke-linecap="round"/>
</svg>
