<svg xmlns="http://www.w3.org/2000/svg" viewBox="0 0 32 32">
  <rect width="32" height="32" fill="#000000"/>
  <g transform="translate(4, 4)">
    <path fill="#FFFFFF" d="M23.638,14.904c-1.602,6.43-8.113,10.34-14.542,8.736C2.67,22.05-1.244,15.525,0.362,9.105C1.962,2.67,8.475-1.243,14.9,0.354C21.334,1.959,25.236,8.484,23.638,14.904z"/>
    <path fill="#000000" d="M17.577,11.382c0.24-1.611-0.985-2.475-2.66-3.052l0.543-2.182l-1.326-0.332l-0.53,2.125c-0.348-0.087-0.707-0.169-1.063-0.25l0.533-2.139l-1.326-0.33l-0.543,2.181c-0.289-0.066-0.573-0.131-0.848-0.2l0.002-0.007l-1.829-0.457l-0.353,1.418c0,0,0.985,0.226,0.965,0.24c0.538,0.134,0.635,0.49,0.619,0.772l-0.62,2.485c0.037,0.009,0.085,0.023,0.138,0.043c-0.044-0.011-0.091-0.023-0.139-0.035l-0.869,3.484c-0.066,0.163-0.232,0.408-0.607,0.315c0.013,0.019-0.965-0.241-0.965-0.241l-0.659,1.521l1.726,0.43c0.321,0.08,0.635,0.164,0.944,0.243l-0.548,2.202l1.325,0.33l0.543-2.182c0.362,0.098,0.713,0.188,1.056,0.273l-0.541,2.173l1.326,0.331l0.548-2.196c2.26,0.427,3.958,0.255,4.671-1.787c0.574-1.644-0.029-2.593-1.217-3.211c0.865-0.199,1.517-0.768,1.69-1.943z M15.797,17.012c-0.409,1.642-3.174,0.754-4.072,0.532l0.726-2.912c0.898,0.224,3.772,0.669,3.346,2.38z M16.206,13.927c-0.373,1.494-2.673,0.735-3.422,0.549l0.659-2.642c0.749,0.187,3.151,0.535,2.763,2.093z"/>
  </g>
</svg>
